<svg xmlns="http://www.w3.org/2000/svg" viewBox="0 0 42 42">
  <defs>
    <linearGradient id="f" x1="0" y1="0" x2="0" y2="1">
      <stop offset="0" stop-color="#ff9142"/>
      <stop offset="1" stop-color="#e85a0e"/>
    </linearGradient>
  </defs>
  <rect width="42" height="42" rx="9" fill="#0d0b09"/>
  <path d="M21 5 C21 12 31 15 31 25 C31 32.5 26.5 37 21 37 C15.5 37 11 32.5 11 25 C11 19 14 16 16.5 11.5 C17 16 19 17.5 20 16 C18.5 12 19 8 21 5 Z" fill="url(#f)"/>
  <path d="M21 22 C24 25 26 26.5 26 30 C26 33.8 23.8 35.5 21 35.5 C18.2 35.5 16 33.8 16 30 C16 26.5 18 25 21 22 Z" fill="#ffd08a"/>
</svg>
